<?xml version="1.0" encoding="iso-8859-1"?>
<svg version="1.1" id="Capa_1" xmlns="http://www.w3.org/2000/svg" xmlns:xlink="http://www.w3.org/1999/xlink" x="0px" y="0px"
	 viewBox="0 0 497.805 497.805" style="enable-background:new 0 0 497.805 497.805;" xml:space="preserve">
<g>
	<path style="fill:#5C546A;" d="M390.288,84.418c8.427,7.25,16.286,15.139,23.511,23.587
		c46.514,39.782,76.005,98.892,76.005,164.897c0,31.53-6.735,61.485-18.833,88.516c17.156-33.793,26.833-72.023,26.833-112.516
		C497.805,111.437,386.367,0,248.902,0c-51.798,0-99.895,15.828-139.733,42.903c33.681-21.523,73.7-34.001,116.635-34.001
		C291.58,8.902,350.51,38.185,390.288,84.418z"/>
	<path style="fill:#5C546A;" d="M108.005,413.8c-8.448-7.226-16.337-15.085-23.587-23.511C38.185,350.51,8.902,291.58,8.902,225.805
		c0-42.935,12.478-82.954,34.001-116.635C15.828,149.007,0,197.105,0,248.902c0,137.465,111.437,248.902,248.902,248.902
		c40.493,0,78.723-9.677,112.516-26.833c-27.03,12.098-56.985,18.833-88.516,18.833C206.897,489.805,147.787,460.314,108.005,413.8z
		"/>
	<path style="fill:#5DCFBC;" d="M84.418,390.288C51.751,352.319,32,302.919,32,248.902c0-45.309,13.901-87.367,37.658-122.159
		c14.599-22.964,34.122-42.487,57.086-57.086C161.536,45.901,203.594,32,248.902,32c54.017,0,103.417,19.751,141.386,52.418
		C350.51,38.185,291.58,8.902,225.805,8.902c-42.935,0-82.954,12.478-116.635,34.001c-26.61,17.005-49.262,39.656-66.267,66.267
		C21.38,142.851,8.902,182.87,8.902,225.805C8.902,291.58,38.185,350.51,84.418,390.288z"/>
	<path style="fill:#FFCF00;" d="M390.288,84.418C352.319,51.751,302.919,32,248.902,32c-45.309,0-87.367,13.901-122.159,37.658
		c28.636-18.205,62.615-28.756,99.061-28.756c27.963,0,54.469,6.219,78.23,17.331c41.561,5.975,79.312,23.726,109.765,49.772
		C406.574,99.557,398.715,91.668,390.288,84.418z"/>
	<path style="fill:#FFCF00;" d="M69.658,126.744C45.901,161.536,32,203.594,32,248.902c0,54.017,19.751,103.417,52.418,141.386
		c7.25,8.427,15.139,16.286,23.587,23.511c-26.046-30.453-43.797-68.204-49.772-109.765c-11.112-23.761-17.331-50.267-17.331-78.23
		C40.902,189.359,51.453,155.379,69.658,126.744z"/>
	<path style="fill:#74749B;" d="M470.971,361.418c12.098-27.03,18.833-56.985,18.833-88.516c0-66.005-29.49-125.115-76.005-164.897
		c-30.453-26.046-68.204-43.797-109.765-49.772c24.622,11.515,46.287,28.292,63.549,48.891c8.361,7.006,16.091,14.737,23.098,23.098
		C431.157,164.14,456.902,215.06,456.902,272c0,102.119-82.784,184.902-184.902,184.902c-56.94,0-107.86-25.745-141.778-66.221
		c-8.361-7.006-16.091-14.737-23.098-23.098c-20.599-17.261-37.376-38.926-48.891-63.549c5.975,41.561,23.726,79.312,49.772,109.765
		c39.782,46.514,98.892,76.005,164.897,76.005c31.53,0,61.485-6.735,88.516-18.833C410.053,449.203,449.203,410.053,470.971,361.418
		z"/>
	<path style="fill:#FFFFFF;" d="M248.902,433.805c-45.179,0-86.565-16.212-118.681-43.124
		C164.14,431.157,215.06,456.902,272,456.902c102.119,0,184.902-82.784,184.902-184.902c0-56.94-25.745-107.86-66.221-141.778
		c26.912,32.116,43.124,73.502,43.124,118.681C433.805,351.021,351.021,433.805,248.902,433.805z"/>
	<path style="fill:#FFF294;" d="M126.744,69.658c-22.964,14.599-42.487,34.122-57.086,57.086
		c-18.205,28.636-28.756,62.615-28.756,99.061c0,27.963,6.219,54.469,17.331,78.23c11.515,24.622,28.292,46.287,48.891,63.549
		C80.212,335.468,64,294.081,64,248.902C64,146.784,146.784,64,248.902,64c45.179,0,86.565,16.212,118.681,43.124
		c-17.261-20.599-38.926-37.376-63.549-48.891c-23.761-11.112-50.267-17.331-78.23-17.331
		C189.359,40.902,155.379,51.453,126.744,69.658z"/>
</g>
</svg>
