<?xml version="1.0"?>
<svg xmlns="http://www.w3.org/2000/svg" xmlns:xlink="http://www.w3.org/1999/xlink" version="1.1" id="Layer_1" x="0px" y="0px" viewBox="0 0 511.672 511.672" style="enable-background:new 0 0 511.672 511.672;" xml:space="preserve" width="512px" height="512px" class="">
<g>
<path style="fill:#F6BB42;" d="M511.672,391.952c0,0-97.531-128.574-180.463-211.49C248.278,97.531,119.705,0,119.705,0  s136.006,0.328,263.83,128.136C511.344,255.945,511.672,391.952,511.672,391.952z" data-original="#F6BB42" class=""/>
<path style="fill:#8C4C4C;" d="M380.943,85.507L9.369,457.082c-12.492,12.492-12.492,32.729,0,45.221  c12.492,12.492,32.729,12.492,45.221,0l371.574-371.574L380.943,85.507z" data-original="#8C4C4C"/>
<rect x="322.589" y="87.817" transform="matrix(-0.7071 -0.7071 0.7071 -0.7071 494.1918 518.9033)" style="fill:#FFCE54;" width="63.951" height="138.569" data-original="#FFCE54" class=""/>
<path style="fill:#434A54;" d="M365.859,160.881c-4.154,4.169-10.915,4.154-15.068,0c-4.17-4.169-4.17-10.915,0-15.084  c4.153-4.153,10.914-4.153,15.068,0C370.029,149.966,370.029,156.712,365.859,160.881z" data-original="#434A54"/>
</g>
</svg>
