<?xml version="1.0" encoding="iso-8859-1"?>
<svg version="1.1" id="Capa_1" xmlns="http://www.w3.org/2000/svg" xmlns:xlink="http://www.w3.org/1999/xlink" x="0px" y="0px"
	 viewBox="0 0 512 512" style="enable-background:new 0 0 512 512;" xml:space="preserve">
<path style="fill:#FFDE33;" d="M376,0H135C60.557,0,0,60.557,0,135v91c0,8.291,6.709,15,15,15h482c8.291,0,15-6.709,15-15v-91
	C512,60.557,450.443,0,376,0z"/>
<path style="fill:#FFBC33;" d="M376,0H256v241h241c8.291,0,15-6.709,15-15v-91C512,60.557,450.443,0,376,0z"/>
<path style="fill:#816154;" d="M450.484,120l-36.777-30H98.293l-36.777,30C60.954,124.99,60,129.864,60,135v61
	c0,8.291,6.709,15,15,15h362c8.291,0,15-6.709,15-15v-61C452,129.864,451.046,124.99,450.484,120z"/>
<path style="fill:#76594D;" d="M413.707,90H256v121h181c8.291,0,15-6.709,15-15v-61c0-5.136-0.954-10.01-1.516-15L413.707,90z"/>
<path style="fill:#A66342;" d="M316,0H196C127.76,0,69.197,51.667,61.516,120h388.968C442.81,51.724,384.305,0,316,0z"/>
<path style="fill:#995B3D;" d="M256,0v120h194.484C442.81,51.724,384.306,0,316,0H256z"/>
<path style="fill:#F9BC35;" d="M422,512H90c-49.706,0-90-40.294-90-90V181h512v241C512,471.706,471.706,512,422,512z"/>
<path style="fill:#F39E31;" d="M256,512h166c49.706,0,90-40.294,90-90V181H256V512z"/>
<path style="fill:#A66342;" d="M437,241H75c-8.291,0-15,6.709-15,15v76l30,30h332l30-30v-76C452,247.709,445.291,241,437,241z"/>
<path style="fill:#995B3D;" d="M437,241H256v121h166l30-30v-76C452,247.709,445.291,241,437,241z"/>
<path style="fill:#816154;" d="M60,332v105c0,8.291,6.709,15,15,15h362c8.291,0,15-6.709,15-15V332H60z"/>
<path style="fill:#76594D;" d="M256,452h181c8.291,0,15-6.709,15-15V332H256V452z"/>
<path style="fill:#FFEACC;" d="M148.536,512H45c-24.853,0-45-20.147-45-45V363.464c43.044-8.39,81.399,20.317,88.74,59.796
	C128.218,430.601,156.925,468.956,148.536,512z"/>
<path style="fill:#FFDBB2;" d="M467,512H362.464c-8.39-43.044,21.317-81.399,60.796-88.74c7.341-39.478,45.696-68.185,88.74-59.796
	L512,467C512,491.853,491.853,512,467,512z"/>
<path style="fill:#FFEACC;" d="M256,301L256,301c-41.421,0-75-33.579-75-75v-45h150v45C331,267.421,297.421,301,256,301z"/>
<path style="fill:#FFDBB2;" d="M256,301c41.422,0,75-33.58,75-75v-45h-75V301z"/>
<path style="fill:#816154;" d="M241,181v45c0,8.284,6.716,15,15,15s15-6.716,15-15v-45l-15-10L241,181z"/>
<path style="fill:#76594D;" d="M256,241c8.284,0,15-6.716,15-15v-45l-15-10V241z"/>
</svg>
